<?xml version="1.0" standalone="no"?>
<!DOCTYPE svg PUBLIC "-//W3C//DTD SVG 20010904//EN"
 "http://www.w3.org/TR/2001/REC-SVG-20010904/DTD/svg10.dtd">
<svg version="1.0" xmlns="http://www.w3.org/2000/svg"
 width="500.000000pt" height="500.000000pt" viewBox="0 0 500.000000 500.000000"
 preserveAspectRatio="xMidYMid meet">
<metadata>
Created by potrace 1.16, written by Peter Selinger 2001-2019
</metadata>
<g transform="translate(0.000000,500.000000) scale(0.100000,-0.100000)"
fill="#000000" stroke="none">
<path d="M3510 2795 c-8 -9 -11 -30 -7 -55 l5 -39 -32 5 c-17 3 -41 7 -53 10
-48 9 -127 -17 -165 -56 -32 -32 -38 -44 -38 -81 0 -25 7 -50 16 -61 16 -17
15 -19 -10 -39 -23 -18 -27 -28 -22 -50 5 -25 2 -29 -18 -29 -27 0 -56 -29
-56 -57 0 -50 77 -77 204 -71 131 6 196 43 196 112 0 40 -34 56 -116 56 -81 0
-104 6 -104 26 0 11 16 14 67 14 80 0 145 28 174 74 20 31 20 52 3 134 -6 31
-5 32 29 32 43 0 63 20 47 49 -21 40 -95 56 -120 26z"/>
<path d="M1165 2790 c-4 -6 -4 -23 -1 -38 9 -40 -65 -298 -93 -323 -30 -28
-18 -39 39 -39 53 0 66 10 51 38 -9 17 8 96 36 172 3 8 22 -34 42 -95 49 -148
53 -148 178 3 51 62 93 110 93 106 0 -29 -46 -163 -61 -180 -36 -39 -26 -45
79 -42 l97 3 -3 33 c-3 48 71 299 98 327 12 13 19 28 15 34 -8 13 -115 14
-148 2 -13 -5 -64 -60 -113 -121 l-89 -112 -35 109 c-19 60 -39 114 -43 121
-10 15 -133 16 -142 2z"/>
<path d="M2093 2710 c-38 -12 -83 -63 -83 -94 0 -34 35 -73 90 -101 26 -13 50
-30 52 -37 9 -24 -3 -38 -33 -38 -24 0 -29 4 -29 24 0 51 -97 79 -120 35 -32
-59 24 -100 143 -107 119 -7 197 32 197 98 0 39 -20 60 -91 96 -59 29 -70 39
-67 57 4 30 48 37 48 8 0 -47 83 -68 121 -30 18 18 19 23 6 42 -8 12 -27 28
-42 36 -36 17 -149 24 -192 11z"/>
<path d="M2486 2706 c-55 -21 -80 -49 -80 -90 0 -43 15 -61 74 -91 25 -13 52
-30 59 -39 20 -24 6 -46 -29 -46 -25 0 -30 4 -30 23 0 32 -30 57 -66 57 -56 0
-77 -40 -44 -83 54 -69 281 -60 319 11 16 31 13 77 -6 94 -10 9 -41 27 -69 41
-58 29 -79 50 -70 72 7 20 46 20 46 0 0 -26 38 -55 73 -55 69 0 86 64 26 96
-44 22 -155 28 -203 10z"/>
<path d="M3752 2708 c-111 -25 -175 -173 -115 -265 18 -27 82 -53 134 -53 55
0 113 32 129 70 16 38 11 44 -24 30 -40 -15 -92 -12 -110 6 -30 29 -19 39 48
40 76 2 125 25 139 68 11 34 -2 69 -35 90 -31 19 -113 27 -166 14z"/>
<path d="M1793 2698 c-25 -12 -29 -28 -12 -45 13 -13 -43 -204 -66 -223 -8 -7
-15 -19 -15 -26 0 -11 21 -14 94 -14 94 0 118 8 97 34 -8 9 -1 44 24 125 41
132 40 125 19 145 -18 19 -106 21 -141 4z"/>
<path d="M2880 2692 c-60 -30 -50 -92 16 -92 37 0 64 22 64 51 0 23 28 26 37
3 3 -8 0 -33 -6 -55 -9 -30 -16 -39 -29 -35 -114 33 -202 -4 -202 -85 0 -50
26 -79 77 -86 32 -4 51 0 79 16 33 20 37 20 48 5 7 -9 32 -18 57 -21 38 -4 50
-1 77 22 35 29 43 58 15 53 -21 -3 -21 -3 2 83 15 58 15 70 4 95 -20 41 -72
64 -144 64 -37 0 -73 -7 -95 -18z"/>
</g>
</svg>
